<svg width="19" height="22" viewBox="0 0 19 22" fill="none" xmlns="http://www.w3.org/2000/svg">
<path d="M9.725 0.251615C9.54729 0.0860148 9.31223 -0.00413921 9.06935 0.000146059C8.82648 0.00443133 8.59474 0.102821 8.42298 0.274588C8.25121 0.446354 8.15282 0.678085 8.14853 0.920962C8.14425 1.16384 8.2344 1.3989 8.4 1.57661L9.925 3.10161H9.375C7.5208 3.10161 5.70824 3.65145 4.16653 4.68159C2.62482 5.71173 1.42321 7.1759 0.713634 8.88896C0.00406206 10.602 -0.181594 12.487 0.180142 14.3056C0.541879 16.1242 1.43476 17.7946 2.74588 19.1057C4.057 20.4169 5.72746 21.3097 7.54603 21.6715C9.3646 22.0332 11.2496 21.8476 12.9627 21.138C14.6757 20.4284 16.1399 19.2268 17.17 17.6851C18.2002 16.1434 18.75 14.3308 18.75 12.4766C18.75 12.228 18.6512 11.9895 18.4754 11.8137C18.2996 11.6379 18.0611 11.5391 17.8125 11.5391C17.5639 11.5391 17.3254 11.6379 17.1496 11.8137C16.9738 11.9895 16.875 12.228 16.875 12.4766C16.8749 13.9567 16.4369 15.4037 15.6161 16.6354C14.7953 17.867 13.6285 18.8283 12.2625 19.3981C10.8965 19.9679 9.39238 20.1209 7.93964 19.8376C6.48691 19.5543 5.15046 18.8476 4.09859 17.8063C3.04673 16.765 2.32647 15.4358 2.02853 13.986C1.73059 12.5362 1.86828 11.0306 2.42426 9.65893C2.98024 8.28723 3.92966 7.1107 5.15296 6.27749C6.37625 5.44429 7.81873 4.99166 9.29875 4.97661L8.39875 5.87661C8.22806 6.05351 8.13368 6.29037 8.13593 6.53618C8.13818 6.78199 8.23689 7.01708 8.41079 7.19082C8.58469 7.36456 8.81988 7.46304 9.06569 7.46506C9.3115 7.46708 9.54827 7.37247 9.725 7.20161L12.5375 4.38911C12.7131 4.21333 12.8117 3.97505 12.8117 3.72661C12.8117 3.47818 12.7131 3.2399 12.5375 3.06411L9.725 0.251615ZM14.4 8.05161C14.5789 8.22406 14.6821 8.46049 14.6867 8.70894C14.6914 8.95739 14.5973 9.19754 14.425 9.37662L9.6125 14.3766C9.52505 14.4673 9.4202 14.5395 9.30422 14.5888C9.18825 14.6381 9.06352 14.6635 8.9375 14.6635C8.81149 14.6635 8.68676 14.6381 8.57078 14.5888C8.45481 14.5395 8.34996 14.4673 8.2625 14.3766L6.2 12.2341C6.11032 12.1464 6.03916 12.0415 5.99074 11.9258C5.94232 11.81 5.91763 11.6857 5.91812 11.5603C5.91862 11.4348 5.9443 11.3107 5.99363 11.1954C6.04296 11.08 6.11495 10.9757 6.20533 10.8887C6.2957 10.8017 6.40263 10.7336 6.51977 10.6887C6.63691 10.6438 6.76188 10.6228 6.88727 10.627C7.01267 10.6313 7.13594 10.6606 7.24978 10.7134C7.36362 10.7661 7.46571 10.8412 7.55 10.9341L8.9375 12.3741L13.075 8.07661C13.2475 7.89769 13.4839 7.79456 13.7323 7.78987C13.9808 7.78518 14.2209 7.87933 14.4 8.05161Z" fill="#5D6679"/>
</svg>
