<svg width="16" height="16" viewBox="0 0 16 16" fill="none" xmlns="http://www.w3.org/2000/svg">
<path d="M6 2.6V2.8H9.2V2.6C9.2 2.17565 9.03143 1.76869 8.73137 1.46863C8.43131 1.16857 8.02435 1 7.6 1C7.17565 1 6.76869 1.16857 6.46863 1.46863C6.16857 1.76869 6 2.17565 6 2.6ZM5 2.8V2.6C5 1.91044 5.27393 1.24912 5.76152 0.761522C6.24912 0.273928 6.91044 0 7.6 0C8.28956 0 8.95088 0.273928 9.43848 0.761522C9.92607 1.24912 10.2 1.91044 10.2 2.6V2.8H14.7C14.8326 2.8 14.9598 2.85268 15.0536 2.94645C15.1473 3.04021 15.2 3.16739 15.2 3.3C15.2 3.43261 15.1473 3.55979 15.0536 3.65355C14.9598 3.74732 14.8326 3.8 14.7 3.8H13.5332L12.7332 13.3424C12.6724 14.067 12.3416 14.7424 11.8063 15.2346C11.2711 15.7269 10.5704 16 9.8432 16H5.3568C4.62968 15.9999 3.92911 15.7267 3.39392 15.2345C2.85873 14.7423 2.52798 14.067 2.4672 13.3424L1.6672 3.8H0.5C0.367392 3.8 0.240215 3.74732 0.146447 3.65355C0.0526784 3.55979 0 3.43261 0 3.3C0 3.16739 0.0526784 3.04021 0.146447 2.94645C0.240215 2.85268 0.367392 2.8 0.5 2.8H5ZM3.4636 13.2588C3.50342 13.7335 3.72012 14.176 4.07076 14.4985C4.42141 14.821 4.8804 15 5.3568 15H9.8432C10.3197 15.0001 10.7788 14.8211 11.1295 14.4986C11.4802 14.1761 11.697 13.7336 11.7368 13.2588L12.5296 3.8H2.6704L3.4636 13.2588ZM6.6 6.5C6.6 6.43434 6.58707 6.36932 6.56194 6.30866C6.53681 6.248 6.49998 6.19288 6.45355 6.14645C6.40712 6.10002 6.352 6.06319 6.29134 6.03806C6.23068 6.01293 6.16566 6 6.1 6C6.03434 6 5.96932 6.01293 5.90866 6.03806C5.848 6.06319 5.79288 6.10002 5.74645 6.14645C5.70002 6.19288 5.66319 6.248 5.63806 6.30866C5.61293 6.36932 5.6 6.43434 5.6 6.5V12.3C5.6 12.3657 5.61293 12.4307 5.63806 12.4913C5.66319 12.552 5.70002 12.6071 5.74645 12.6536C5.79288 12.7 5.848 12.7368 5.90866 12.7619C5.96932 12.7871 6.03434 12.8 6.1 12.8C6.16566 12.8 6.23068 12.7871 6.29134 12.7619C6.352 12.7368 6.40712 12.7 6.45355 12.6536C6.49998 12.6071 6.53681 12.552 6.56194 12.4913C6.58707 12.4307 6.6 12.3657 6.6 12.3V6.5ZM9.1 6C9.376 6 9.6 6.224 9.6 6.5V12.3C9.6 12.4326 9.54732 12.5598 9.45355 12.6536C9.35979 12.7473 9.23261 12.8 9.1 12.8C8.96739 12.8 8.84021 12.7473 8.74645 12.6536C8.65268 12.5598 8.6 12.4326 8.6 12.3V6.5C8.6 6.224 8.824 6 9.1 6Z" fill="#2B2F38"/>
</svg>
