<svg width="21" height="21" viewBox="0 0 21 21" fill="none" xmlns="http://www.w3.org/2000/svg">
<path d="M19.2088 10.4999C19.2088 11.017 18.906 11.4834 18.4746 11.9086C18.2165 12.1624 17.9155 12.4056 17.6504 12.6524C17.4386 12.8493 17.2479 13.0426 17.1586 13.2579C17.065 13.4828 17.0589 13.7619 17.0668 14.0568C17.0764 14.4208 17.1158 14.8049 17.1184 15.1636C17.1236 15.7683 17.0108 16.3046 16.6581 16.6581C16.3046 17.0108 15.7683 17.1236 15.1636 17.1184C14.8049 17.1149 14.4208 17.0764 14.0576 17.0668C13.7628 17.0589 13.4828 17.065 13.2579 17.1586C13.0426 17.2479 12.8493 17.4386 12.6524 17.6504C12.4056 17.9155 12.1624 18.2165 11.9086 18.4738C11.4834 18.906 11.017 19.2088 10.4999 19.2088C9.98277 19.2088 9.51639 18.906 9.09114 18.4738C8.83739 18.2165 8.59414 17.9155 8.34739 17.6504C8.15052 17.4386 7.95627 17.2479 7.74189 17.1586C7.51702 17.065 7.23702 17.0589 6.94302 17.0668C6.57902 17.0764 6.19489 17.1149 5.83614 17.1184C5.23152 17.1236 4.69427 17.0108 4.34164 16.6581C3.98814 16.3046 3.87614 15.7683 3.88139 15.1636C3.88402 14.8049 3.92339 14.4208 3.93302 14.0568C3.94089 13.7619 3.93477 13.4828 3.84114 13.257C3.75189 13.0426 3.56114 12.8493 3.34939 12.6524C3.08514 12.4056 2.78414 12.1624 2.52602 11.9086C2.09464 11.4834 1.79102 11.017 1.79102 10.4999C1.79102 9.98277 2.09464 9.51639 2.52602 9.09114C2.78414 8.83739 3.08514 8.59414 3.34939 8.34739C3.56114 8.15052 3.75189 7.95714 3.84114 7.74277C3.93477 7.51702 3.94089 7.23789 3.93302 6.94302C3.92339 6.57902 3.88402 6.19489 3.88139 5.83614C3.87614 5.23152 3.98814 4.69514 4.34164 4.34164C4.69427 3.98902 5.23152 3.87614 5.83614 3.88139C6.19489 3.88489 6.57902 3.92339 6.94302 3.93302C7.23702 3.94089 7.51702 3.93477 7.74189 3.84114C7.95627 3.75189 8.15052 3.56114 8.34739 3.34939C8.59414 3.08427 8.83739 2.78327 9.09114 2.52602C9.51639 2.09377 9.98277 1.79102 10.4999 1.79102C11.017 1.79102 11.4834 2.09377 11.9086 2.52602C12.1624 2.78327 12.4056 3.08427 12.6524 3.34939C12.8493 3.56114 13.0426 3.75189 13.2579 3.84114C13.4828 3.93477 13.7628 3.94089 14.0576 3.93302C14.4208 3.92339 14.8049 3.88489 15.1636 3.88139C15.7683 3.87614 16.3046 3.98902 16.6581 4.34164C17.0108 4.69514 17.1236 5.23152 17.1184 5.83614C17.1158 6.19489 17.0764 6.57902 17.0668 6.94302C17.0589 7.23789 17.065 7.51702 17.1586 7.74189C17.2479 7.95714 17.4386 8.15052 17.6504 8.34739C17.9155 8.59414 18.2165 8.83739 18.4746 9.09114C18.906 9.51639 19.2088 9.98277 19.2088 10.4999ZM18.3338 10.4999C18.3338 10.3354 18.2568 10.1893 18.1535 10.0466C18.01 9.84889 17.814 9.66427 17.6093 9.48139C17.0991 9.02552 16.5549 8.57139 16.3501 8.07789C16.1384 7.56602 16.1953 6.85377 16.2311 6.17214C16.246 5.89652 16.2548 5.62789 16.218 5.38902C16.1926 5.22189 16.148 5.06964 16.0395 4.96114C15.9301 4.85177 15.7779 4.80714 15.6108 4.78177C15.3719 4.74502 15.1033 4.75377 14.8276 4.76864C14.146 4.80452 13.4338 4.86139 12.9228 4.64964C12.4284 4.44489 11.9743 3.90152 11.5184 3.39052C11.3355 3.18577 11.1509 2.98977 10.9531 2.84627C10.8105 2.74302 10.6644 2.66602 10.4999 2.66602C10.3363 2.66602 10.1893 2.74302 10.0466 2.84627C9.84889 2.98977 9.66427 3.18577 9.48139 3.39052C9.02552 3.90152 8.57139 4.44489 8.07702 4.64964C7.56602 4.86139 6.85377 4.80452 6.17214 4.76864C5.89652 4.75377 5.62789 4.74502 5.38902 4.78177C5.22102 4.80714 5.06964 4.85177 4.96027 4.96114C4.85089 5.06964 4.80714 5.22189 4.78177 5.38902C4.74502 5.62789 4.75377 5.89652 4.76777 6.17214C4.80452 6.85377 4.86139 7.56602 4.64964 8.07702C4.44489 8.57139 3.90152 9.02552 3.39052 9.48139C3.18577 9.66427 2.98977 9.84889 2.84627 10.0466C2.74302 10.1893 2.66602 10.3354 2.66602 10.4999C2.66602 10.6644 2.74302 10.8105 2.84627 10.9531C2.98977 11.1509 3.18577 11.3355 3.39052 11.5184C3.90152 11.9743 4.44489 12.4284 4.64964 12.9228C4.86139 13.4338 4.80452 14.146 4.76777 14.8276C4.75377 15.1033 4.74502 15.3719 4.78177 15.6108C4.80714 15.7779 4.85089 15.9301 4.96027 16.0386C5.06964 16.148 5.22102 16.1926 5.38902 16.218C5.62789 16.2548 5.89652 16.246 6.17214 16.2311C6.85377 16.1953 7.56602 16.1384 8.07702 16.3501C8.57139 16.5549 9.02552 17.0983 9.48139 17.6093C9.66427 17.814 9.84889 18.01 10.0466 18.1535C10.1893 18.2568 10.3363 18.3338 10.4999 18.3338C10.6644 18.3338 10.8105 18.2568 10.9531 18.1535C11.1509 18.01 11.3355 17.814 11.5184 17.6093C11.9743 17.0983 12.4284 16.5549 12.9228 16.3501C13.4338 16.1384 14.146 16.1953 14.8276 16.2311C15.1033 16.246 15.3719 16.2548 15.6108 16.218C15.7779 16.1926 15.9301 16.148 16.0395 16.0386C16.148 15.9301 16.1926 15.7779 16.218 15.6108C16.2548 15.3719 16.246 15.1033 16.2311 14.8276C16.1953 14.146 16.1384 13.4338 16.3501 12.9219C16.5549 12.4284 17.0991 11.9743 17.6093 11.5184C17.814 11.3355 18.01 11.1509 18.1535 10.9531C18.2568 10.8105 18.3338 10.6644 18.3338 10.4999ZM9.11914 8.95814C9.03664 9.04059 8.9387 9.10597 8.83093 9.15057C8.72316 9.19517 8.60766 9.2181 8.49102 9.21806C8.37438 9.21802 8.2589 9.19501 8.15115 9.15034C8.04341 9.10566 7.94552 9.04021 7.86308 8.9577C7.78063 8.8752 7.71524 8.77727 7.67065 8.66949C7.62605 8.56172 7.60312 8.44622 7.60316 8.32958C7.6032 8.21295 7.62621 8.09746 7.67088 7.98972C7.71556 7.88197 7.78101 7.78409 7.86352 7.70164C8.03014 7.53513 8.25608 7.44164 8.49164 7.44172C8.7272 7.4418 8.95307 7.53546 9.11958 7.70208C9.28608 7.8687 9.37958 8.09464 9.3795 8.3302C9.37942 8.56576 9.28576 8.79164 9.11914 8.95814ZM13.0313 7.34989C13.1138 7.2702 13.2243 7.2261 13.339 7.2271C13.4537 7.22809 13.5634 7.2741 13.6446 7.35522C13.7257 7.43634 13.7717 7.54607 13.7727 7.66078C13.7737 7.77549 13.7296 7.886 13.6499 7.96852L7.96852 13.6499C7.886 13.7296 7.77549 13.7737 7.66078 13.7727C7.54607 13.7717 7.43634 13.7257 7.35522 13.6446C7.2741 13.5634 7.22809 13.4537 7.2271 13.339C7.2261 13.2243 7.2702 13.1138 7.34989 13.0313L13.0313 7.34989ZM11.8806 12.0425C11.9631 11.9601 12.0611 11.8947 12.1689 11.8501C12.2766 11.8055 12.3921 11.7826 12.5088 11.7826C12.6254 11.7826 12.7409 11.8056 12.8486 11.8503C12.9564 11.895 13.0543 11.9605 13.1367 12.043C13.2191 12.1255 13.2845 12.2234 13.3291 12.3312C13.3737 12.4389 13.3967 12.5544 13.3966 12.6711C13.3966 12.7877 13.3736 12.9032 13.3289 13.0109C13.2842 13.1187 13.2188 13.2166 13.1363 13.299C12.9696 13.4655 12.7437 13.559 12.5081 13.5589C12.2726 13.5589 12.0467 13.4652 11.8802 13.2986C11.7137 13.132 11.6202 12.906 11.6203 12.6705C11.6204 12.4349 11.714 12.209 11.8806 12.0425Z" fill="#585454"/>
</svg>
