<svg width="21" height="21" viewBox="0 0 21 21" fill="none" xmlns="http://www.w3.org/2000/svg">
<path d="M14.7513 10.3993C14.7513 10.8543 14.5857 11.2906 14.291 11.6124C13.9963 11.9341 13.5966 12.1148 13.1799 12.1148C12.7631 12.1148 12.3634 11.9341 12.0687 11.6124C11.774 11.2906 11.6084 10.8543 11.6084 10.3993C11.6084 9.45212 12.3119 8.68408 13.1795 8.68408C14.0471 8.68408 14.7513 9.45212 14.7513 10.3993Z" stroke="#585454" stroke-width="1.07333" stroke-linecap="round" stroke-linejoin="round"/>
<path d="M10.3309 5.09356H18.0037C18.5318 5.09231 19.0387 5.32008 19.413 5.72679C19.7873 6.1335 19.9983 6.68585 19.9996 7.26237V13.5271C20.0006 14.1037 19.7917 14.657 19.4191 15.0655C19.0464 15.4739 18.5404 15.7041 18.0123 15.7053H10.3309C9.8028 15.7066 9.29588 15.4788 8.92159 15.0721C8.5473 14.6654 8.33629 14.113 8.33497 13.5365V7.27175C8.3344 6.98622 8.38536 6.70337 8.48492 6.43933C8.58449 6.1753 8.73072 5.93526 8.91526 5.73293C9.0998 5.53059 9.31904 5.36991 9.56046 5.26008C9.80188 5.15024 10.0608 5.09339 10.3223 5.09277L10.3309 5.09356Z" stroke="#585454" stroke-width="1.07333" stroke-linecap="round" stroke-linejoin="round"/>
<path d="M18.3558 15.6694V17.8202C18.3565 18.1058 18.3056 18.3886 18.2062 18.6527C18.1067 18.9168 17.9605 19.1569 17.776 19.3593C17.5916 19.5617 17.3724 19.7225 17.131 19.8324C16.8896 19.9423 16.6308 19.9993 16.3692 20H2.99593C2.73439 20.0006 2.47529 19.945 2.23344 19.8363C1.99159 19.7276 1.77172 19.5679 1.58638 19.3665C1.40104 19.165 1.25386 18.9257 1.15325 18.6621C1.05264 18.3985 1.00057 18.1159 1 17.8304V3.17898C0.99944 2.89345 1.0504 2.6106 1.14996 2.34656C1.24953 2.08253 1.39576 1.84249 1.5803 1.64015C1.76484 1.43782 1.98408 1.27714 2.2255 1.16731C2.46692 1.05747 2.72579 1.00062 2.98734 1H16.3592C16.8873 0.998965 17.3941 1.22694 17.7683 1.6338C18.1424 2.04065 18.3533 2.59308 18.3544 3.1696V5.12802" stroke="#585454" stroke-width="1.07333" stroke-linecap="round" stroke-linejoin="round"/>
</svg>
