<svg width="19" height="19" viewBox="0 0 19 19" fill="none" xmlns="http://www.w3.org/2000/svg">
<path d="M9.45945 19C7.03695 19 4.9257 18.2123 3.12572 16.6369C1.32574 15.063 0.283831 13.0799 0 10.6875H1.20569C1.53006 12.73 2.46464 14.4281 4.00942 15.7819C5.55578 17.1356 7.37246 17.8125 9.45945 17.8125C11.785 17.8125 13.7575 17.0062 15.377 15.3936C16.9965 13.7809 17.8066 11.8164 17.8074 9.5C17.8074 7.18437 16.9973 5.21985 15.377 3.60644C13.7567 1.99302 11.7842 1.18671 9.45945 1.1875C8.22554 1.1875 7.06557 1.44717 5.97954 1.9665C4.8943 2.48583 3.93627 3.20071 3.10545 4.11112H6.06421V5.29862H1.11147V0.36575H2.30404V3.2015C3.22629 2.19371 4.30676 1.40837 5.54544 0.8455C6.78412 0.281833 8.08879 0 9.45945 0C10.7816 0 12.0211 0.247792 13.1779 0.743375C14.3347 1.23896 15.3452 1.91702 16.2094 2.77756C17.0736 3.6381 17.755 4.64471 18.2535 5.79737C18.7512 6.94925 19 8.18346 19 9.5C19 10.8165 18.7512 12.0507 18.2535 13.2026C17.7558 14.3545 17.0744 15.3611 16.2094 16.2224C15.3452 17.083 14.3347 17.761 13.1779 18.2566C12.0211 18.7522 10.7816 19 9.45945 19ZM13.2792 14.0766L8.93114 9.747V3.5625H10.1237V9.253L14.1236 13.2359L13.2792 14.0766Z" fill="#585454"/>
</svg>
