<svg width="23" height="23" viewBox="0 0 23 23" fill="none" xmlns="http://www.w3.org/2000/svg">
<path d="M9.58333 20.1251H4.875C3.77043 20.1251 2.875 19.2297 2.875 18.1251V11.8179C2.875 11.3061 3.07115 10.8139 3.42309 10.4424L10.0481 3.44932C10.8369 2.61664 12.163 2.61663 12.9519 3.44931L19.5769 10.4424C19.9288 10.8139 20.125 11.3061 20.125 11.8179V18.1251C20.125 19.2297 19.2296 20.1251 18.125 20.1251H13.4167M9.58333 20.1251V14.8751C9.58333 14.5989 9.80719 14.3751 10.0833 14.3751H12.9167C13.1928 14.3751 13.4167 14.5989 13.4167 14.8751V20.1251M9.58333 20.1251H13.4167" stroke="#5D6679" stroke-width="1.5"/>
</svg>
