<svg width="18" height="22" viewBox="0 0 18 22" fill="none" xmlns="http://www.w3.org/2000/svg">
<path d="M-1.01964e-06 11.8458L-1.31989e-07 1.69226C-9.27527e-08 1.24344 0.172401 0.81301 0.47928 0.49565C0.786158 0.178292 1.20237 4.38853e-07 1.63636 4.76794e-07L16.3636 1.76429e-06C16.7976 1.80223e-06 17.2138 0.178293 17.5207 0.495651C17.8276 0.813011 18 1.24344 18 1.69226L18 11.8458C18 12.2946 17.8276 12.725 17.5207 13.0424C17.2138 13.3598 16.7976 13.5381 16.3636 13.5381L13.9091 13.5381C13.6921 13.5381 13.484 13.4489 13.3305 13.2902C13.1771 13.1315 13.0909 12.9163 13.0909 12.6919C13.0909 12.4675 13.1771 12.2523 13.3305 12.0936C13.484 11.9349 13.6921 11.8458 13.9091 11.8458L16.3636 11.8458L16.3636 1.69226L1.63636 1.69226L1.63636 11.8458L4.09091 11.8458C4.3079 11.8458 4.51601 11.9349 4.66945 12.0936C4.82289 12.2523 4.90909 12.4675 4.90909 12.6919C4.90909 12.9163 4.82289 13.1315 4.66945 13.2902C4.51601 13.4489 4.3079 13.5381 4.09091 13.5381L1.63636 13.5381C1.20237 13.5381 0.786156 13.3598 0.479279 13.0424C0.1724 12.725 -1.05888e-06 12.2946 -1.01964e-06 11.8458ZM12.512 16.3239L9.81818 19.1109L9.81818 9.30741C9.81818 9.083 9.73198 8.86779 9.57854 8.70911C9.4251 8.55043 9.217 8.46128 9 8.46128C8.783 8.46128 8.5749 8.55043 8.42146 8.70911C8.26802 8.86779 8.18182 9.083 8.18182 9.30741L8.18182 19.1109L5.48795 16.3239C5.33443 16.1652 5.12621 16.076 4.90909 16.076C4.69197 16.076 4.48375 16.1652 4.33023 16.3239C4.1767 16.4827 4.09045 16.698 4.09045 16.9226C4.09045 17.1471 4.1767 17.3624 4.33023 17.5212L8.42113 21.7518C8.49712 21.8305 8.58736 21.8929 8.68668 21.9355C8.78601 21.9781 8.89248 22 9 22C9.10752 22 9.21399 21.9781 9.31331 21.9355C9.41264 21.8929 9.50288 21.8305 9.57886 21.7518L13.6698 17.5212C13.8233 17.3624 13.9095 17.1471 13.9095 16.9226C13.9095 16.698 13.8233 16.4827 13.6698 16.3239C13.5162 16.1652 13.308 16.076 13.0909 16.076C12.8738 16.076 12.6656 16.1652 12.512 16.3239Z" fill="#8E8C8C"/>
</svg>
