<svg width="19" height="18" viewBox="0 0 19 18" fill="none" xmlns="http://www.w3.org/2000/svg">
<path d="M6.57 18L6.21 15.12C6.015 15.045 5.8314 14.955 5.6592 14.85C5.487 14.745 5.3181 14.6325 5.1525 14.5125L2.475 15.6375L0 11.3625L2.3175 9.6075C2.3025 9.5025 2.295 9.4014 2.295 9.3042V8.6967C2.295 8.5989 2.3025 8.4975 2.3175 8.3925L0 6.6375L2.475 2.3625L5.1525 3.4875C5.3175 3.3675 5.49 3.255 5.67 3.15C5.85 3.045 6.03 2.955 6.21 2.88L6.57 0H11.52L11.88 2.88C12.075 2.955 12.2589 3.045 12.4317 3.15C12.6045 3.255 12.7731 3.3675 12.9375 3.4875L15.615 2.3625L18.09 6.6375L15.7725 8.3925C15.7875 8.4975 15.795 8.5989 15.795 8.6967V9.3033C15.795 9.4011 15.78 9.5025 15.75 9.6075L18.0675 11.3625L15.5925 15.6375L12.9375 14.5125C12.7725 14.6325 12.6 14.745 12.42 14.85C12.24 14.955 12.06 15.045 11.88 15.12L11.52 18H6.57ZM8.145 16.2H9.9225L10.2375 13.815C10.7025 13.695 11.1339 13.5189 11.5317 13.2867C11.9295 13.0545 12.2931 12.7731 12.6225 12.4425L14.85 13.365L15.7275 11.835L13.7925 10.3725C13.8675 10.1625 13.92 9.9414 13.95 9.7092C13.98 9.477 13.995 9.2406 13.995 9C13.995 8.76 13.98 8.5239 13.95 8.2917C13.92 8.0595 13.8675 7.8381 13.7925 7.6275L15.7275 6.165L14.85 4.635L12.6225 5.58C12.2925 5.235 11.9289 4.9464 11.5317 4.7142C11.1345 4.482 10.7031 4.3056 10.2375 4.185L9.945 1.8H8.1675L7.8525 4.185C7.3875 4.305 6.9564 4.4814 6.5592 4.7142C6.162 4.947 5.7981 5.2281 5.4675 5.5575L3.24 4.635L2.3625 6.165L4.2975 7.605C4.2225 7.83 4.17 8.055 4.14 8.28C4.11 8.505 4.095 8.745 4.095 9C4.095 9.24 4.11 9.4725 4.14 9.6975C4.17 9.9225 4.2225 10.1475 4.2975 10.3725L2.3625 11.835L3.24 13.365L5.4675 12.42C5.7975 12.765 6.1614 13.0539 6.5592 13.2867C6.957 13.5195 7.3881 13.6956 7.8525 13.815L8.145 16.2ZM9.09 12.15C9.96 12.15 10.7025 11.8425 11.3175 11.2275C11.9325 10.6125 12.24 9.87 12.24 9C12.24 8.13 11.9325 7.3875 11.3175 6.7725C10.7025 6.1575 9.96 5.85 9.09 5.85C8.205 5.85 7.4586 6.1575 6.8508 6.7725C6.243 7.3875 5.9394 8.13 5.94 9C5.94 9.87 6.2439 10.6125 6.8517 11.2275C7.4595 11.8425 8.2056 12.15 9.09 12.15Z" fill="#585454"/>
</svg>
