<svg width="23" height="23" viewBox="0 0 23 23" fill="none" xmlns="http://www.w3.org/2000/svg">
<g clip-path="url(#clip0_2274_2941)">
<path d="M11.4999 18.8927V22.1784M15.607 17.2499V20.5356M7.39272 17.2499V20.5356M20.5356 0.821289H2.46415C2.02843 0.821289 1.61057 0.994375 1.30247 1.30247C0.994375 1.61057 0.821289 2.02843 0.821289 2.46415V12.3213C0.821289 12.757 0.994375 13.1749 1.30247 13.483C1.61057 13.7911 2.02843 13.9641 2.46415 13.9641H20.5356C20.9713 13.9641 21.3892 13.7911 21.6973 13.483C22.0053 13.1749 22.1784 12.757 22.1784 12.3213V2.46415C22.1784 2.02843 22.0053 1.61057 21.6973 1.30247C21.3892 0.994375 20.9713 0.821289 20.5356 0.821289Z" stroke="#585454" stroke-width="1.2" stroke-linecap="round" stroke-linejoin="round"/>
<path d="M11.5002 10.2676C11.8778 10.2676 12.2516 10.1932 12.6004 10.0487C12.9492 9.90425 13.2662 9.69248 13.5332 9.42551C13.8001 9.15854 14.0119 8.8416 14.1564 8.49279C14.3009 8.14398 14.3752 7.77013 14.3752 7.39258C14.3752 7.01503 14.3009 6.64117 14.1564 6.29236C14.0119 5.94355 13.8001 5.62661 13.5332 5.35965C13.2662 5.09268 12.9492 4.88091 12.6004 4.73642C12.2516 4.59194 11.8778 4.51758 11.5002 4.51758C10.7377 4.51758 10.0065 4.82048 9.46729 5.35965C8.92812 5.89881 8.62522 6.63008 8.62522 7.39258C8.62522 8.15508 8.92812 8.88634 9.46729 9.42551C10.0065 9.96468 10.7377 10.2676 11.5002 10.2676ZM4.55915 7.80329C4.45022 7.80329 4.34576 7.76002 4.26873 7.683C4.19171 7.60597 4.14844 7.50151 4.14844 7.39258C4.14844 7.28365 4.19171 7.17918 4.26873 7.10216C4.34576 7.02514 4.45022 6.98186 4.55915 6.98186M4.55915 7.80329C4.66808 7.80329 4.77255 7.76002 4.84957 7.683C4.92659 7.60597 4.96987 7.50151 4.96987 7.39258C4.96987 7.28365 4.92659 7.17918 4.84957 7.10216C4.77255 7.02514 4.66808 6.98186 4.55915 6.98186M18.4413 7.80329C18.3324 7.80329 18.2279 7.76002 18.1509 7.683C18.0739 7.60597 18.0306 7.50151 18.0306 7.39258C18.0306 7.28365 18.0739 7.17918 18.1509 7.10216C18.2279 7.02514 18.3324 6.98186 18.4413 6.98186M18.4413 7.80329C18.5502 7.80329 18.6547 7.76002 18.7317 7.683C18.8087 7.60597 18.852 7.50151 18.852 7.39258C18.852 7.28365 18.8087 7.17918 18.7317 7.10216C18.6547 7.02514 18.5502 6.98186 18.4413 6.98186" stroke="#585454" stroke-width="3.68" stroke-linecap="round" stroke-linejoin="round"/>
</g>
<defs>
<clipPath id="clip0_2274_2941">
<rect width="23" height="23" fill="white"/>
</clipPath>
</defs>
</svg>
