<svg width="26" height="19" viewBox="0 0 26 19" fill="none" xmlns="http://www.w3.org/2000/svg">
<path d="M15.095 10.2098C14.3073 10.2098 13.6448 9.93676 13.1075 9.39069C12.5703 8.84461 12.3017 8.17125 12.3017 7.37059C12.3017 6.56993 12.5703 5.89657 13.1075 5.35049C13.6448 4.80442 14.3073 4.53138 15.095 4.53138C15.8827 4.53138 16.5452 4.80442 17.0824 5.35049C17.6196 5.89657 17.8883 6.56993 17.8883 7.37059C17.8883 8.17125 17.6196 8.84461 17.0824 9.39069C16.5452 9.93676 15.8827 10.2098 15.095 10.2098ZM6.44693 14.7412C5.82588 14.7412 5.29469 14.5169 4.85335 14.0683C4.41108 13.6187 4.18994 13.0788 4.18994 12.4485V2.29266C4.18994 1.66236 4.41108 1.12291 4.85335 0.674312C5.29469 0.224771 5.82542 0 6.44553 0H23.743C24.3641 0 24.8953 0.224298 25.3366 0.672893C25.7779 1.12149 25.9991 1.66141 26 2.29266V12.4485C26 13.0788 25.7789 13.6183 25.3366 14.0669C24.8953 14.5164 24.3645 14.7412 23.7444 14.7412H6.44693ZM7.84357 13.3216H22.3464C22.3464 12.6875 22.5675 12.1466 23.0098 11.699C23.4511 11.2523 23.9818 11.0289 24.602 11.0289V3.71227C23.9781 3.71227 23.446 3.48797 23.0056 3.03938C22.5661 2.58983 22.3464 2.04991 22.3464 1.41961H7.84357C7.84357 2.0537 7.62244 2.59457 7.18017 3.04221C6.73883 3.48892 6.2081 3.71227 5.58799 3.71227V11.0289C6.21182 11.0289 6.74395 11.2537 7.18436 11.7032C7.62384 12.1518 7.84357 12.6913 7.84357 13.3216ZM21.8631 19H2.25698C1.63594 19 1.10475 18.7757 0.663408 18.3271C0.221136 17.8776 0 17.3376 0 16.7073V4.20345H1.39665V16.7073C1.39665 16.925 1.4865 17.1252 1.6662 17.3078C1.84497 17.4895 2.0419 17.5804 2.25698 17.5804H21.8631V19ZM6.44693 13.3216H5.58659V1.41961H6.44693C6.21415 1.41961 6.01257 1.50573 5.84218 1.67797C5.67179 1.85117 5.58659 2.05606 5.58659 2.29266V12.4485C5.58659 12.6851 5.67179 12.89 5.84218 13.0632C6.01257 13.2355 6.21415 13.3216 6.44693 13.3216Z" fill="#585454"/>
</svg>
