<svg width="19" height="21" viewBox="0 0 19 21" fill="none" xmlns="http://www.w3.org/2000/svg">
<path d="M2.77083 0C2.03596 0 1.33119 0.322656 0.811558 0.896986C0.291926 1.47132 0 2.25027 0 3.0625V16.625C0 17.7853 0.417037 18.8981 1.15937 19.7186C1.9017 20.5391 2.90852 21 3.95833 21H15.0417C16.0915 21 17.0983 20.5391 17.8406 19.7186C18.583 18.8981 19 17.7853 19 16.625V14H14.25V3.0625C14.25 2.25027 13.9581 1.47132 13.4384 0.896986C12.9188 0.322656 12.214 0 11.4792 0H2.77083ZM14.25 15.75H17.4167V16.625C17.4167 17.3212 17.1664 17.9889 16.721 18.4812C16.2756 18.9734 15.6716 19.25 15.0417 19.25H14.25V15.75ZM1.58333 3.0625C1.58333 2.7144 1.70844 2.38056 1.93114 2.13442C2.15384 1.88828 2.45589 1.75 2.77083 1.75H11.4792C11.7941 1.75 12.0962 1.88828 12.3189 2.13442C12.5416 2.38056 12.6667 2.7144 12.6667 3.0625V19.25H3.95833C3.32844 19.25 2.72435 18.9734 2.27895 18.4812C1.83356 17.9889 1.58333 17.3212 1.58333 16.625V3.0625ZM3.95833 6.125C3.95833 5.89294 4.04174 5.67038 4.19021 5.50628C4.33867 5.34219 4.54004 5.25 4.75 5.25H9.5C9.70996 5.25 9.91133 5.34219 10.0598 5.50628C10.2083 5.67038 10.2917 5.89294 10.2917 6.125C10.2917 6.35706 10.2083 6.57962 10.0598 6.74372C9.91133 6.90781 9.70996 7 9.5 7H4.75C4.54004 7 4.33867 6.90781 4.19021 6.74372C4.04174 6.57962 3.95833 6.35706 3.95833 6.125ZM3.95833 10.5C3.95833 10.2679 4.04174 10.0454 4.19021 9.88128C4.33867 9.71719 4.54004 9.625 4.75 9.625H9.5C9.70996 9.625 9.91133 9.71719 10.0598 9.88128C10.2083 10.0454 10.2917 10.2679 10.2917 10.5C10.2917 10.7321 10.2083 10.9546 10.0598 11.1187C9.91133 11.2828 9.70996 11.375 9.5 11.375H4.75C4.54004 11.375 4.33867 11.2828 4.19021 11.1187C4.04174 10.9546 3.95833 10.7321 3.95833 10.5ZM4.75 14C4.54004 14 4.33867 14.0922 4.19021 14.2563C4.04174 14.4204 3.95833 14.6429 3.95833 14.875C3.95833 15.1071 4.04174 15.3296 4.19021 15.4937C4.33867 15.6578 4.54004 15.75 4.75 15.75H7.125C7.33496 15.75 7.53633 15.6578 7.68479 15.4937C7.83326 15.3296 7.91667 15.1071 7.91667 14.875C7.91667 14.6429 7.83326 14.4204 7.68479 14.2563C7.53633 14.0922 7.33496 14 7.125 14H4.75Z" fill="#5D6679"/>
</svg>
